<?xml version="1.0" standalone="no"?>
<!DOCTYPE svg PUBLIC "-//W3C//DTD SVG 1.1//EN" "http://www.w3.org/Graphics/SVG/1.1/DTD/svg11.dtd" >
<svg xmlns="http://www.w3.org/2000/svg">
<metadata>Generated by IcoMoon</metadata>
<defs>
<font id="bally_icons" horiz-adv-x="1024">
<font-face units-per-em="1024" ascent="960" descent="-64" />
<missing-glyph horiz-adv-x="1024" />
<glyph unicode="&#x20;" horiz-adv-x="512" d="" />
<glyph unicode="&#xe900;" glyph-name="icon_IssueComp" horiz-adv-x="1566" d="M412.293 582.734l102.641 203.716 102.701-203.716 229.436-32.648-166.069-158.539 39.153-223.955-205.222 105.713-205.222-105.713 39.153 223.955-166.008 158.539 229.436 32.648zM-0.018 896.018v-896.060c0-35.177 29.395-63.97 65.235-63.97h964.728v1024h-964.728c-35.84 0-65.235-28.732-65.235-63.97v0zM1566.118 835.885v60.175c0 35.177-29.335 63.97-65.235 63.97h-340.45v-1024h340.45c35.9 0 65.235 28.732 65.235 63.97v60.175c-52.585 0-95.232 41.743-95.232 93.365 0 51.561 42.647 93.425 95.232 93.425v107.64c-52.585 0-95.232 41.803-95.232 93.425 0 51.561 42.647 93.365 95.232 93.365v107.64c-52.585 0-95.232 41.864-95.232 93.425 0 51.622 42.647 93.425 95.232 93.425z" />
<glyph unicode="&#xe901;" glyph-name="icon_Active" horiz-adv-x="1303" d="M721.268-11.338l-238.499 631.808-59.532-206.848c-10.054-34.816-41.937-58.833-78.289-58.833h-263.494c-45.009 0-81.455 36.399-81.455 81.315 0 44.87 36.445 81.268 81.455 81.268h202.147l110.452 383.814c9.635 33.652 39.843 57.344 74.938 58.787 35.468 0.884 67.212-19.735 79.5-52.596l244.783-648.239 68.561 202.938c11.171 33.047 42.263 55.296 77.219 55.296h282.764c45.009 0 81.455-36.399 81.455-81.268 0-44.916-36.445-81.315-81.455-81.315h-224.303l-122.833-363.473c-10.985-32.535-41.332-54.691-75.776-55.296-35.281 0-65.629 20.899-77.638 52.643z" />
<glyph unicode="&#xe902;" glyph-name="icon_Alert2" d="M564.586 544.333c0.051 15.027 0.128 30.080-0.154 45.107-0.384 21.171-17.459 37.76-38.886 37.76-21.658 0-38.758-16.614-38.912-37.862-0.333-43.29-0.307-86.579 0.051-129.869 0.102-14.669 7.629-26.522 21.197-33.382 5.683-2.893 11.699-4.352 17.894-4.352 21.376 0 38.374 17.050 38.733 38.835 0.256 15.693 0.179 31.411 0.077 47.13l-0.051 17.28 0.051 19.354zM525.543 396.8h-0.102c-10.445 0-20.301-4.122-27.75-11.597-7.347-7.398-11.366-17.126-11.29-27.392 0.128-21.146 17.51-38.477 39.040-38.63 10.394 0 20.224 4.122 27.648 11.597 7.347 7.424 11.392 17.152 11.315 27.392-0.154 21.222-17.562 38.554-38.861 38.63zM821.222 264.806c-10.573-26.035-35.968-42.854-64.717-42.854l-389.069 0.102c-32.512 0-65.075-0.051-97.638-0.256h-0.512c-26.65 0-50.125 13.261-62.771 35.456-12.621 22.118-12.134 48.845 1.229 71.501 14.592 24.678 28.877 49.536 43.162 74.394l67.763 117.478c43.904 76.032 87.808 152.038 131.635 228.070 13.517 23.475 34.048 36.301 59.341 37.094l2.586 0.051c26.086 0 47.13-12.518 60.8-36.147 19.738-34.125 39.475-68.275 59.162-102.451l69.402-120.243c37.99-65.792 75.955-131.584 113.997-197.35 12.493-21.581 14.387-43.392 5.632-64.845zM512 960c-282.778 0-512-229.222-512-512s229.222-512 512-512c282.778 0 512 229.222 512 512s-229.222 512-512 512z" />
<glyph unicode="&#xe903;" glyph-name="icon_Calc" d="M853.453 173.773c-2.637-23.987-21.632-40.781-46.182-40.96h-173.235c-15.565 0.077-29.030 6.118-38.016 16.973-8.499 10.189-11.802 23.347-9.318 36.992 3.405 18.765 17.562 32.87 36.045 35.891 6.016 1.024 12.314 1.306 18.483 1.306l158.925 0.051c5.171 0 10.394-0.307 15.437-1.331 24.397-4.915 40.346-25.498 37.862-48.922zM598.042 343.68c8.909 9.037 21.325 13.85 35.942 13.85l172.39 0.077c19.661 0 34.842-9.37 42.88-26.342 8.525-17.894 5.043-37.581-8.883-50.15-9.011-8.013-21.504-13.184-32.589-13.517l-174.029-0.358c-27.853 0.102-47.539 18.611-47.923 45.005-0.205 12.211 4.019 23.091 12.211 31.437zM632.627 668.288l100.838 0.026c32.768 0 62.925-0.026 71.475-0.077 22.272-0.102 40.166-13.747 45.619-34.714 4.992-19.635-4.48-41.139-22.042-50.125-7.194-3.712-16.051-5.76-24.858-5.811l-171.366-0.102c-14.387 0.077-26.701 4.864-35.558 13.85-8.371 8.422-12.749 19.661-12.672 32.461 0.256 26.163 20.224 44.442 48.563 44.493zM453.734 589.926c-8.448-8.96-20.198-13.824-34.022-14.157-18.227-0.461-36.89-0.563-55.347-0.256 0.23-18.688 0.102-36.096-0.102-53.478-0.333-25.651-16.154-44.621-39.398-47.206-1.894-0.23-3.866-0.333-5.811-0.333-11.443 0-22.195 3.942-30.31 11.187-9.651 8.499-15.078 20.89-15.181 34.918l-0.077 8.243c-0.154 15.539-0.282 31.13-0.026 46.669-18.227-0.256-35.84-0.179-53.581 0.154-16.947 0.358-31.616 7.859-40.294 20.557-8.141 11.904-9.805 26.726-4.557 40.678 6.63 18.278 22.784 29.338 43.136 29.466 15.514 0.154 31.027 0.179 46.541 0.205l8.781 0.026v9.421c0 15.667 0 31.002 0.102 46.336 0.154 22.912 15.974 41.498 38.426 45.184 21.274 3.584 42.65-9.651 49.254-29.44 2.534-7.501 2.944-15.002 2.995-21.35 0.128-16.691 0.23-33.408 0.102-50.074h3.149l50.406-0.256c26.906-0.205 46.413-17.766 47.462-42.803 0.563-13.21-3.482-24.883-11.648-33.69zM415.77 145.792c-18.125-10.65-39.706-8.141-54.912 6.451-10.854 10.47-21.504 21.146-32.128 31.795l-7.936 7.91-25.574-25.754c-5.402-5.453-10.419-10.496-15.898-15.053-9.19-7.834-19.994-12.058-31.078-12.058-11.878 0-23.142 4.992-31.77 14.029-17.459 18.381-17.101 45.312 0.87 64.077 12.749 13.363 25.958 26.368 39.219 39.322-4.608 4.506-8.986 8.806-13.338 13.133l-6.093 5.99c-8.013 7.885-14.771 14.541-21.146 21.555-17.178 18.944-16.486 46.31 1.613 63.667 17.536 16.717 45.747 16.333 63.488-0.896 10.547-10.342 21.018-20.762 31.462-31.181l8.243-8.192 35.942 36.122c4.531 4.531 19.277 19.174 40.909 16.461 16.819-2.099 30.131-12.032 36.506-27.264 7.219-17.203 4.045-35.328-8.499-48.435-10.368-10.88-20.992-21.581-31.642-32.307l-8.832-8.96 7.219-7.219c9.805-9.779 19.507-19.482 29.082-29.312 4.634-4.71 10.88-12.365 14.106-21.914 6.579-19.942-1.587-41.267-19.814-51.968zM776.013 960h-528.026c-136.96 0-247.987-117.171-247.987-261.76v-500.506c0-144.563 111.027-261.734 247.987-261.734h528.026c136.96 0 247.987 117.171 247.987 261.734v500.506c0 144.589-111.027 261.76-247.987 261.76z" />
<glyph unicode="&#xe904;" glyph-name="icon_Calendar" horiz-adv-x="914" d="M684.266 960h-0.512c-24.174-0.219-44.142-18.359-44.398-43.118-0.658-67.035-0.439-134.071-0.037-201.070 0.11-18.944 12.727-34.962 29.696-40.923 5.376-1.902 10.752-2.779 15.909-2.779 24.137 0 43.739 19.822 44.105 48.603 0.329 32 0.549 164.096-0.731 198.034-0.951 24.942-19.895 41.253-44.032 41.253zM227.515 960h-0.512c-24.174-0.219-44.142-18.359-44.398-43.118-0.622-67.035-0.439-134.071 0-201.070 0.11-18.944 12.727-34.962 29.696-40.923 5.413-1.902 10.752-2.779 15.872-2.779 24.137 0 43.776 19.822 44.105 48.603 0.329 32 0.549 164.096-0.731 198.034-0.914 24.942-19.858 41.253-44.032 41.253zM914.194 682.518c0 30.793-10.606 56.978-33.134 78.336-29.403 27.794-62.793 27.319-90.075 26.917 0-29.659-0.146-55.625-0.293-67.767-0.695-61.806-47.141-110.263-105.801-110.263-12.142 0-24.32 2.085-36.133 6.254-42.24 14.848-70.875 54.784-71.131 99.401-0.146 21.614-0.256 46.446-0.329 72.411l-243.054 0.219c0-29.769-0.146-55.845-0.256-68.023-0.731-61.806-47.177-110.263-105.838-110.263-12.178 0-24.32 2.085-36.133 6.254-42.24 14.848-70.875 54.784-71.131 99.401-0.183 21.76-0.293 46.738-0.329 72.85-6.4 0.037-11.849 0.037-21.029-0.183-6.546-0.183-13.166-1.17-19.566-2.67-49.006-11.557-79.909-52.078-79.945-104.923-0.037-219.173 0-417.829 0-636.965 0-3.365 0.073-6.693 0.219-10.021 1.975-53.723 46.592-97.426 99.803-97.463 238.043-0.037 476.123 0 714.167 0.037 5.559 0 11.264 0.219 16.713 1.317 50.615 10.35 83.090 50.139 83.163 104.155 0.329 220.489 0.146 420.462 0.11 640.987z" />
<glyph unicode="&#xe905;" glyph-name="icon_CashDrop" horiz-adv-x="1247" d="M464.032 436.358c-88.163 0-159.602 71.439-159.602 159.602s71.439 159.654 159.602 159.654c88.163 0 159.602-71.492 159.602-159.654s-71.439-159.602-159.602-159.602zM838.422 873.512h-330.178l-320.301 80.114c-4.756 1.202-9.459 1.881-14.162 2.090-14.058 0.627-27.646-3.031-39.299-9.982-11.602-7.003-21.218-17.298-27.332-29.945-1.986-4.233-3.658-8.727-4.808-13.483l-2.404-9.459-5.592-22.472c-31.408-7.16-55.291-33.917-55.291-67.468v-153.331l-37.209-148.784v-0.052c-1.881-7.525-2.143-14.999-1.62-22.263 0.105-1.097 0.052-2.143 0.209-3.24 0.836-6.951 2.77-13.588 5.592-19.911 0.418-1.045 0.941-2.090 1.463-3.083 3.136-6.271 7.055-12.124 11.915-17.246 0.47-0.47 0.993-0.888 1.516-1.359 5.278-5.226 11.288-9.773 18.134-13.17v0-31.46c0-38.986 31.617-70.551 70.603-70.551h330.178l110.896-27.75c0.052 18.291 3.449 36.686 10.922 54.194 21.949 51.685 72.432 85.079 128.612 85.079h63.705v276.403c0 76.77 62.242 139.22 138.907 139.691-12.96 16.305-32.035 27.436-54.455 27.436zM1239.255 316.813c-10.609 24.301-34.596 39.979-61.092 39.979h-136.817v349.567c0 36.791-29.84 66.631-66.631 66.631h-81.003c-36.791 0-66.579-29.84-66.579-66.631v-349.567h-136.869c-26.705 0-50.849-15.939-61.301-40.501-6.167-14.528-6.271-30.154-2.038-44.682 2.979-10.086 7.682-19.702 15.312-27.593l248.287-258.321c12.699-13.17 29.475-20.486 48.445-20.486h0.209c18.343 0.157 35.746 7.891 48.236 21.322l239.612 258.321c18.030 19.441 22.838 47.713 12.229 71.962z" />
<glyph unicode="&#xe906;" glyph-name="icon_Cashless" horiz-adv-x="1638" d="M0 124.252c0-71.475 57.958-129.502 129.502-129.502h1334.34c71.475 0 129.502 58.027 129.502 129.502v97.553h-1593.344v-97.553zM1437.819 666.624c0-11.947-9.694-21.641-21.641-21.641h-170.394c-12.015 0-21.709 9.694-21.709 21.641v127.386c0 11.947 9.694 21.641 21.709 21.641h170.394c11.947 0 21.641-9.694 21.641-21.641v-127.386zM1463.828 959.966h-1334.34c-71.543 0-129.502-57.958-129.502-129.434v-500.599h1593.344v500.599c0 71.475-57.958 129.434-129.502 129.434v0z" />
<glyph unicode="&#xe907;" glyph-name="icon_Chips" d="M827.319 129.061l-56.978 57.673c45.202 44.581 78.629 100.791 96 163.621l77.897-21.541c-21.175-76.69-61.879-145.298-116.919-199.753zM394.862 15.25l21.211 78.482c30.72-8.338 62.903-13.202 96.219-13.202 32.293 0 63.488 4.608 93.33 12.471l20.553-78.519c-36.535-9.655-74.679-15.287-114.176-15.287-40.558 0-79.726 5.888-117.138 16.055zM78.921 331.995l78.629 20.992c16.896-62.939 49.737-119.406 94.501-164.279l-57.673-57.49c-54.674 54.821-94.793 123.831-115.456 200.777zM193.865 764.233l57.563-57.125c-44.654-44.983-77.385-101.486-94.171-164.498l-78.519 20.773c20.517 76.91 60.599 145.957 115.127 200.85zM625.079 881.847l-20.297-78.153c-29.623 7.717-60.489 12.251-92.489 12.251-33.646 0-66.085-4.937-97.061-13.385l-21.321 77.97c37.742 10.35 77.166 16.311 118.089 16.311 39.131 0 76.873-5.559 113.079-14.994zM944.128 567.698l-77.787-21.504c-17.481 63.086-51.127 119.479-96.585 164.169l56.539 57.527c55.442-54.455 96.475-123.246 117.833-200.192zM512.293 143.689c-167.973 0-304.567 136.631-304.567 304.603 0 167.899 136.594 304.494 304.567 304.494s304.567-136.594 304.567-304.494c0-167.973-136.594-304.603-304.567-304.603zM512 960c-282.331 0-512-229.669-512-511.927 0-282.368 229.669-512.073 512-512.073s512 229.705 512 512.073c0 282.258-229.669 511.927-512 511.927z" />
<glyph unicode="&#xe908;" glyph-name="icon_ChipsCardLayer" horiz-adv-x="1815" d="M0 959.981v-1024h1815.273v1024h-1815.273zM139.636 587.664h232.727v232.681h1070.545v-232.681h227.514v-325.818h-227.514v-197.26h-1070.545v197.26h-232.727v325.818zM698.182 215.273h418.909v418.909h-418.909z" />
<glyph unicode="&#xe909;" glyph-name="icon_ChipsLayer" d="M170.979 236.119l-85.326-57.544c36.708-54.361 83.501-100.597 137.238-136.481l57.188 85.638c-42.696 28.516-79.894 65.247-109.101 108.388zM425.196 68.023l-19.656-101.109c62.152-12.088 127.599-12.644 193.558 0.49l-20.102 100.819c-52.38-10.44-104.381-9.862-153.8-0.2zM723.87 128.663l57.544-85.326c54.361 36.708 100.597 83.501 136.481 137.238l-85.638 57.188c-28.516-42.719-65.247-79.894-108.388-109.101zM577.12 849.662l19.656 101.109c-62.152 12.088-127.622 12.644-193.558-0.467l20.102-100.842c52.358 10.44 104.381 9.884 153.8 0.2zM831.325 681.565l85.326 57.544c-36.708 54.383-83.523 100.597-137.238 136.481l-57.188-85.638c42.719-28.516 79.894-65.247 109.101-108.388zM110.521 381.021c-10.44 52.358-9.862 104.359-0.2 153.778l-101.087 19.656c-12.11-62.13-12.666-127.599 0.467-193.514l0.022-0.022 100.797 20.102zM992.565 556.76l-100.775-20.079c10.418-52.358 9.839-104.381 0.156-153.8l101.109-19.656c12.11 62.152 12.666 127.599-0.49 193.536zM278.435 789.010l-57.567 85.326c-54.361-36.686-100.575-83.501-136.459-137.238l85.638-57.188c28.516 42.719 65.247 79.894 108.388 109.101zM548.695 220.207c-131.584-26.223-259.962 59.481-286.186 191.087-26.223 131.584 59.503 259.985 191.11 286.186 131.584 26.223 259.962-59.503 286.163-191.087 26.223-131.606-59.481-259.962-191.087-286.186zM801.378 518.658c-33.035 165.799-194.248 273.453-360.047 240.417s-273.43-194.248-240.417-360.047c33.057-165.821 194.248-273.453 360.047-240.417 165.821 33.057 273.453 194.248 240.417 360.047z" />
<glyph unicode="&#xe90a;" glyph-name="icon_Clear" d="M813.389 244.235l190.354 190.318c27.026 26.953 27.026 70.693 0 97.682-13.495 13.495-31.122 20.224-48.859 20.224-17.627 0-35.365-6.729-48.859-20.224l-190.391-190.318-190.354 190.318c-13.495 13.495-31.195 20.224-48.933 20.224-17.627 0-35.328-6.729-48.823-20.224-26.99-26.99-26.99-70.729 0-97.682l190.391-190.318-190.391-190.354c-26.99-26.917-26.99-70.656 0-97.646 13.495-13.495 31.195-20.261 48.823-20.261 17.737 0 35.438 6.766 48.933 20.261l190.354 190.318 190.391-190.318c13.495-13.495 31.232-20.261 48.859-20.261 17.737 0 35.365 6.766 48.859 20.261 27.026 26.99 27.026 70.729 0 97.646l-190.354 190.354zM117.211 238.519v491.886c0 61.989 50.432 112.421 112.384 112.421h492.032c62.025 0 112.494-50.432 112.494-112.421v-106.423c32.768 28.27 73.509 44.434 117.175 45.275v61.147c0 126.245-103.387 229.595-229.669 229.595h-492.032c-126.281 0-229.595-103.351-229.595-229.595v-491.886c0-126.245 103.314-229.522 229.595-229.522h60.891c0.914 43.63 17.115 84.37 45.458 117.138h-106.35c-61.952 0-112.384 50.432-112.384 112.384z" />
<glyph unicode="&#xe90b;" glyph-name="icon_Close" horiz-adv-x="983" d="M622.479 447.992l333.496 333.537c36.127 36.086 36.127 94.74 0 130.867-36.209 36.168-94.863 36.168-131.031 0l-333.373-333.496-333.496 333.496c-36.168 36.168-94.781 36.168-130.949 0-36.168-36.127-36.168-94.781 0-130.867l333.537-333.537-333.537-333.537c-36.168-36.045-36.168-94.74 0-130.826 18.063-18.104 41.779-27.116 65.495-27.116s47.391 9.011 65.454 27.116l333.496 333.496 333.373-333.496c18.145-18.104 41.861-27.116 65.536-27.116s47.391 9.011 65.495 27.116c36.127 36.086 36.127 94.781 0 130.826l-333.496 333.537z" />
<glyph unicode="&#xe90c;" glyph-name="icon_Dealer_Login" horiz-adv-x="1126" d="M742.967 105.465c-15.292 16.896-23.142 38.741-22.016 61.508 1.161 22.767 11.093 43.725 27.989 59.051l43.247 39.219h-200.738v-129.195l-140.22 79.94-145.135-79.94v192.887l145.135-77.21 70.349 38.741c-14.677 14.814-24.064 34.85-24.849 57.139-43.895-13.38-88.235-11.503-132.437 6.485-42.906 17.442-81.135 47.002-116.975 90.283-64.171-28.297-119.023-66.321-164.045-113.493-34.679-36.25-57.412-69.632-71.612-105.097-11.366-28.297-14.336-51.746-9.25-73.796 6.11-27.341 21.538-51.2 48.333-75.127 35.806-32.017 81.545-56.354 143.872-76.629 74.923-24.371 155.375-36.25 245.794-36.25h11.708l0.137-1.434c9.523 0.785 18.944 1.604 28.433 2.389 29.833 2.458 60.723 5.018 90.726 8.977 59.29 7.748 116.19 23.723 169.165 47.479 40.311 18.091 70.383 37.854 94.31 61.167-9.148-3.277-18.773-5.12-28.672-5.12-24.064 0-47.104 10.206-63.249 28.023zM345.399 451.983c30.925-24.849 62.464-37.717 96.324-39.492 35.362-1.877 69.222 9.284 102.878 33.894 37.99 27.853 69.154 65.741 95.198 115.814 29.321 56.559 43.383 111.138 44.134 171.691l-1.058 9.421c-1.024 9.318-2.185 20.685-4.574 31.778-23.552 108.988-120.798 184.9-229.547 184.9-11.571 0-23.177-0.853-34.953-2.594-114.313-17.169-200.397-117.009-200.26-232.277 0.068-37.069 7.407-74.581 22.528-114.517 25.805-68.471 61.542-120.388 109.329-158.618zM1111.965 379.583c-0.171 0.683-0.444 1.263-0.614 1.911-0.683 2.731-1.468 5.427-2.56 7.953-0.41 0.99-1.058 1.877-1.536 2.833-1.092 2.082-2.15 4.164-3.482 6.076-0.751 1.058-1.673 1.98-2.492 3.004-1.365 1.673-2.731 3.277-4.233 4.745-0.307 0.273-0.512 0.614-0.819 0.887l-207.292 187.802c-20.924 18.978-53.35 17.442-72.294-3.584-19.012-20.958-17.408-53.35 3.55-72.329l108.885-98.645h-298.94c-28.262 0-51.2-22.903-51.2-51.2 0-28.262 22.938-51.2 51.2-51.2h298.94l-108.885-98.645c-20.958-18.978-22.562-51.371-3.55-72.329 10.103-11.162 23.996-16.828 37.922-16.828 12.254 0 24.576 4.403 34.372 13.278l207.292 187.802c0.307 0.239 0.512 0.614 0.819 0.853 1.536 1.468 2.867 3.14 4.267 4.813 0.819 0.99 1.707 1.911 2.458 2.97 1.331 1.911 2.423 3.994 3.482 6.076 0.478 0.956 1.126 1.843 1.536 2.833 1.092 2.526 1.911 5.257 2.56 7.987 0.171 0.649 0.478 1.229 0.614 1.843 0.717 3.413 1.092 6.929 1.092 10.547s-0.375 7.134-1.092 10.547z" />
<glyph unicode="&#xe90d;" glyph-name="icon_Dealer_Logout" horiz-adv-x="1126" d="M383.433 105.465c15.292 16.896 23.142 38.741 22.016 61.508-1.161 22.767-11.093 43.725-27.989 59.051l-43.247 39.219h200.738v-129.195l140.22 79.94 145.135-79.94v192.887l-145.135-77.21-70.349 38.741c14.677 14.814 24.064 34.85 24.849 57.139 43.895-13.38 88.235-11.503 132.437 6.485 42.906 17.442 81.135 47.002 116.975 90.283 64.171-28.297 119.023-66.321 164.045-113.493 34.679-36.25 57.412-69.632 71.612-105.097 11.366-28.297 14.336-51.746 9.25-73.796-6.11-27.341-21.538-51.2-48.333-75.127-35.806-32.017-81.545-56.354-143.872-76.629-74.923-24.371-155.375-36.25-245.794-36.25h-11.708l-0.137-1.434c-9.523 0.785-18.944 1.604-28.433 2.389-29.833 2.458-60.723 5.018-90.726 8.977-59.29 7.748-116.19 23.723-169.165 47.479-40.311 18.091-70.383 37.854-94.31 61.167 9.148-3.277 18.773-5.12 28.672-5.12 24.064 0 47.104 10.206 63.249 28.023zM781.001 451.983c-30.925-24.849-62.464-37.717-96.324-39.492-35.362-1.877-69.222 9.284-102.878 33.894-37.99 27.853-69.154 65.741-95.198 115.814-29.321 56.559-43.383 111.138-44.134 171.691l1.058 9.421c1.024 9.318 2.185 20.685 4.574 31.778 23.552 108.988 120.798 184.9 229.547 184.9 11.571 0 23.177-0.853 34.953-2.594 114.313-17.169 200.397-117.009 200.26-232.277-0.068-37.069-7.407-74.581-22.528-114.517-25.805-68.471-61.542-120.388-109.329-158.618zM14.435 379.583c0.171 0.683 0.444 1.263 0.614 1.911 0.683 2.731 1.468 5.427 2.56 7.953 0.41 0.99 1.058 1.877 1.536 2.833 1.092 2.082 2.15 4.164 3.482 6.076 0.751 1.058 1.673 1.98 2.492 3.004 1.365 1.673 2.731 3.277 4.233 4.745 0.307 0.273 0.512 0.614 0.819 0.887l207.292 187.802c20.924 18.978 53.35 17.442 72.294-3.584 19.012-20.958 17.408-53.35-3.55-72.329l-108.885-98.645h298.94c28.262 0 51.2-22.903 51.2-51.2 0-28.262-22.938-51.2-51.2-51.2h-298.94l108.885-98.645c20.958-18.978 22.562-51.371 3.55-72.329-10.103-11.162-23.996-16.828-37.922-16.828-12.254 0-24.576 4.403-34.372 13.278l-207.292 187.802c-0.307 0.239-0.512 0.614-0.819 0.853-1.536 1.468-2.867 3.14-4.267 4.813-0.819 0.99-1.707 1.911-2.458 2.97-1.331 1.911-2.423 3.994-3.482 6.076-0.478 0.956-1.126 1.843-1.536 2.833-1.092 2.526-1.911 5.257-2.56 7.987-0.171 0.649-0.478 1.229-0.614 1.843-0.717 3.413-1.092 6.929-1.092 10.547s0.375 7.134 1.092 10.547z" />
<glyph unicode="&#xe90e;" glyph-name="icon_Dollar" d="M673.77 243.352c-25.234-27.941-57.271-44.69-92.928-55.223-3.035-0.878-6.107-1.719-9.947-2.779v-87.186h-121.856v44.032c0 9.070-0.256 18.139 0.11 27.246 0.219 5.851-1.646 7.753-7.753 8.448-44.325 5.266-87.296 15.506-126.318 38.437-2.487 1.499-5.559 5.961-4.974 8.229 10.825 43.557 22.053 87.003 33.536 131.328 13.641-7.022 26.587-14.226 39.936-20.48 37.705-17.627 77.166-27.246 118.857-24.101 11.337 0.878 23.113 4.279 33.317 9.253 15.177 7.351 17.81 24.649 4.974 35.474-11.118 9.472-24.393 17.152-37.815 23.003-25.637 11.154-52.48 19.493-78.080 30.757-31.342 13.824-59.465 32.622-80.311 60.599-44.288 59.282-34.743 148.37 21.102 200.265 22.967 21.321 50.030 35.035 79.799 44.105 2.45 0.768 4.937 1.573 7.899 2.487v80.603h121.051v-72.082c42.862-4.242 83.566-14.080 121.856-35.072-11.739-43.922-23.552-87.771-35.255-131.182-21.87 8.997-42.496 18.761-63.963 25.929-27.611 9.216-56.393 13.019-85.504 8.119-7.936-1.317-16.274-4.937-22.821-9.765-8.302-6.144-8.375-17.006-0.256-23.479 9.326-7.351 19.419-14.226 30.245-18.944 24.539-10.789 49.774-19.895 74.569-30.171 32.622-13.605 62.939-30.976 86.345-58.258 21.211-24.613 31.488-53.541 33.829-85.614 3.474-46.665-7.68-88.722-39.643-123.977zM521.231 959.932c-288.841 4.608-517.23-226.853-521.179-504.064-4.023-288.622 229.449-520.411 511.525-519.863 281.49-0.512 507.611 226.011 512.366 502.235 4.937 289.829-226.853 517.303-502.711 521.691z" />
<glyph unicode="&#xe90f;" glyph-name="icon_Dropdown" horiz-adv-x="1536" d="M1492.525 893.968c-54.080 48.704-137.728 44.608-186.752-9.088l-537.792-589.888-537.792 589.888c-49.024 53.696-132.608 57.792-186.752 9.088-54.016-48.576-58.24-131.648-9.216-185.472l635.776-697.344c25.088-27.456 60.672-43.136 97.984-43.136s72.896 15.68 97.984 43.136l635.776 697.344c22.976 25.152 34.24 56.704 34.24 88.128 0 35.84-14.656 71.488-43.456 97.344z" />
<glyph unicode="&#xe910;" glyph-name="icon_Help" horiz-adv-x="998" d="M644.72 522.112c-8.267-12.032-24.226-27.443-47.803-46.208l-23.227-18.355c-12.738-10.035-21.079-21.709-25.25-35.123-2.647-8.525-4.071-58.522-4.296-76.39h-88.988c1.349 37.683 4.795 100.608 10.515 115.046 5.62 14.31 20.33 30.899 43.832 49.638l23.902 19.072c7.867 6.042 14.186 12.595 19.031 19.712 8.741 12.288 13.062 25.805 13.062 40.525 0 16.896-4.87 32.358-14.536 46.362-9.765 13.901-27.473 20.838-53.298 20.838-25.325 0-43.283-8.525-53.872-25.754-10.54-17.178-15.86-34.97-15.86-53.53h-94.907c2.622 63.565 24.376 108.621 65.311 135.168 25.8 16.947 57.619 25.446 95.257 25.446 49.452 0 90.562-12.058 123.355-36.147 32.693-24.064 49.052-59.725 49.052-107.085 0-28.954-7.093-53.35-21.279-73.216zM499.512 157.466c-39.911 0-72.254 33.126-72.254 74.035 0 40.883 32.343 74.061 72.254 74.061 39.886 0 72.229-33.178 72.229-74.061 0-40.909-32.343-74.035-72.229-74.035zM499.512 960c-275.881 0-499.512-229.197-499.512-512 0-282.752 223.632-512 499.512-512 275.856 0 499.512 229.248 499.512 512 0 282.803-223.657 512-499.512 512z" />
<glyph unicode="&#xe911;" glyph-name="icon_Host" horiz-adv-x="914" d="M378.499 335.009c-44.581 17.993-84.334 48.494-121.49 93.147-66.706-29.221-123.721-68.425-170.533-117.065-36.023-37.376-59.611-71.826-74.423-108.398-11.776-29.221-14.848-53.394-9.545-76.105 6.363-28.233 22.345-52.846 50.213-77.531 37.157-32.987 84.699-58.112 149.467-79.031 53.797-17.371 110.702-28.16 171.52-33.426l57.49 331.154-27.831 58.843c-8.302 2.267-16.567 5.083-24.869 8.411zM909.713 180.937c-8.777 31.488-25.088 62.098-49.957 93.659-52.187 66.158-120.174 117.797-202.203 153.527-25.783-30.61-51.419-53.504-79.433-71.241-23.369-14.775-46.921-25.015-70.583-31.122l-31.707-59.465 50.907-330.313c22.382 1.938 44.8 4.023 66.962 6.912 61.586 7.973 120.722 24.503 175.726 48.969 46.921 20.882 80.896 43.63 106.971 71.607 34.231 36.681 45.093 75.118 33.317 117.467zM655.82 549.669c30.501 58.331 45.093 114.651 45.897 177.115l-1.134 9.691c-1.097 9.618-2.304 21.321-4.754 32.768-24.466 112.421-125.55 190.757-238.519 190.757-11.995 0-24.101-0.914-36.315-2.706-118.784-17.701-208.201-120.686-208.055-239.543 0.073-38.29 7.68-76.946 23.369-118.162 26.807-70.619 63.963-124.123 113.627-163.584 32.146-25.637 64.878-38.949 100.096-40.741 36.718-1.938 71.899 9.582 106.898 34.962 39.461 28.709 71.826 67.803 98.889 119.442z" />
<glyph unicode="&#xe912;" glyph-name="icon_Housekeeping" horiz-adv-x="914" d="M12.094 162.966c-11.813-30.757-14.848-56.21-9.655-80.128 6.4-29.696 22.455-55.589 50.249-81.554 27.648-25.856 61.111-47.031 103.022-65.28v228.023h57.198v213.358c-47.982-27.392-90.331-60.818-126.427-100.315-35.986-39.351-59.648-75.593-74.386-114.103zM909.707 140.054c-8.814 33.134-25.088 65.39-49.993 98.597-42.386 56.576-95.707 102.473-158.062 138.094v-212.736h56.978v-227.511c3.547 1.609 7.241 2.926 10.789 4.571 46.885 22.016 80.933 45.897 106.971 75.337 34.231 38.619 45.056 79.067 33.317 123.648zM378.489 302.215c-28.782 12.251-55.442 30.61-80.823 54.309v-192.512h319.269v192.11c-12.617-11.703-25.454-21.943-38.839-30.866-65.609-43.703-132.791-51.419-199.607-23.040zM700.526 724.751c-1.024 10.13-2.267 22.455-4.718 34.487-24.466 118.345-125.55 200.777-238.482 200.777-12.032 0-24.137-0.914-36.389-2.853-118.747-18.615-208.165-127.013-208.018-252.123 0.037-40.302 7.68-80.933 23.406-124.343 26.77-74.313 63.963-130.67 113.627-172.178 32.146-26.99 64.878-40.96 100.059-42.862 36.718-2.085 71.899 10.057 106.862 36.791 39.497 30.208 71.863 71.351 98.926 125.696 30.501 61.403 45.129 120.686 45.861 186.405l-1.134 10.203z" />
<glyph unicode="&#xe913;" glyph-name="icon_IncreaseValue" d="M938.667 533.355h-341.333v341.333c0 47.104-38.229 85.333-85.333 85.333s-85.333-38.229-85.333-85.333v-341.333h-341.333c-47.104 0-85.333-38.229-85.333-85.333s38.229-85.333 85.333-85.333h341.333v-341.333c0-47.104 38.229-85.333 85.333-85.333s85.333 38.229 85.333 85.333v341.333h341.333c47.104 0 85.333 38.229 85.333 85.333s-38.229 85.333-85.333 85.333z" />
<glyph unicode="&#xe914;" glyph-name="icon_Language" d="M821.601 268.838h-74.88l-145.869 254.234v-254.234h-69.786v358.349h78.49l142.285-249.856v249.856h69.76v-358.349zM473.953 268.838h-271.539v358.349h262.784v-63.462h-189.619v-76.083h174.080v-62.234h-174.080v-92.134h198.374v-64.435zM511.995 960.013c-282.778 0-512-229.222-512-512s229.222-512 512-512c282.778 0 512 229.222 512 512s-229.222 512-512 512v0z" />
<glyph unicode="&#xe915;" glyph-name="icon_LeftNavigation" horiz-adv-x="640" d="M617.301-35.017c32.469 36.053 29.739 91.819-6.059 124.501l-393.259 358.528 393.259 358.528c35.797 32.683 38.528 88.405 6.059 124.501-32.384 36.011-87.765 38.827-123.648 6.144l-464.896-423.851c-18.304-16.725-28.757-40.448-28.757-65.323s10.453-48.597 28.757-65.323l464.896-423.851c16.768-15.317 37.803-22.827 58.752-22.827 23.893 0 47.659 9.771 64.896 28.971z" />
<glyph unicode="&#xe916;" glyph-name="icon_Loader" horiz-adv-x="1038" d="M823.296 452.096c0 167.936-136.533 305.835-305.835 305.835s-305.835-136.533-305.835-305.835c0-167.936 136.533-305.835 305.835-305.835s305.835 136.533 305.835 305.835v0zM240.299 452.096c0 152.917 124.245 278.528 278.528 278.528s277.163-125.611 277.163-278.528c0-152.917-124.245-278.528-278.528-278.528s-277.163 124.245-277.163 278.528v0zM1028.096 467.115v0 0c-2.731 66.901-17.749 132.437-45.056 192.512-4.096 9.557-8.192 17.749-12.288 25.941-25.941 49.152-58.709 94.208-99.669 132.437-47.787 45.056-102.4 80.555-162.475 105.131s-124.245 36.864-189.781 36.864v0 0 0c-65.536 0-128.341-12.288-188.416-36.864-16.384-6.827-31.403-13.653-46.421-20.48-42.325-21.845-81.92-50.517-117.419-83.285-47.787-45.056-86.016-99.669-111.957-159.744-27.307-61.44-42.325-125.611-45.056-192.512-2.731-68.267 9.557-133.803 32.768-196.608 6.827-19.115 15.019-36.864 24.576-54.613 21.845-42.325 50.517-81.92 83.285-117.419 47.787-50.517 103.765-88.747 167.936-116.053s131.072-40.96 200.704-40.96v0 0 0c69.632 0 136.533 13.653 200.704 40.96 13.653 5.461 24.576 10.923 34.133 16.384 49.152 25.941 94.208 58.709 132.437 99.669 47.787 49.152 83.285 106.496 107.861 170.667v0c24.576 65.536 35.499 131.072 34.133 197.973v0zM857.429 109.397c-34.133-34.133-73.728-62.805-116.053-84.651-6.827-2.731-12.288-6.827-20.48-9.557l-42.325 103.765c4.096 1.365 8.192 4.096 10.923 5.461v0c32.768 17.749 62.805 38.229 88.747 64.171l79.189-79.189zM932.523 310.101l-62.805 25.941c12.288 38.229 19.115 77.824 17.749 117.419h111.957c0-54.613-8.192-107.861-27.307-159.744l-39.595 16.384zM518.827 109.397v0c-47.787 0-92.843 9.557-136.533 28.672v0c-43.691 19.115-80.555 45.056-113.323 79.189-21.845 23.211-39.595 49.152-54.613 76.459v0c-6.827 12.288-12.288 25.941-17.749 39.595-16.384 42.325-23.211 87.381-20.48 132.437v0 0c1.365 45.056 12.288 87.381 31.403 128.341 19.115 39.595 43.691 75.093 76.459 105.131v0 0c23.211 21.845 49.152 39.595 76.459 54.613 10.923 5.461 21.845 10.923 32.768 15.019 39.595 16.384 81.92 23.211 125.611 23.211v0c43.691 0 86.016-8.192 125.611-24.576 40.96-16.384 77.824-39.595 109.227-68.267 28.672-25.941 51.883-57.344 69.632-91.477v0c2.731-4.096 4.096-9.557 6.827-13.653v0c19.115-40.96 30.037-84.651 31.403-128.341 1.365-45.056-5.461-90.112-20.48-133.803v0c-16.384-43.691-39.595-83.285-72.363-116.053-25.941-28.672-57.344-51.883-91.477-69.632-6.827-4.096-15.019-6.827-21.845-10.923v0c-43.691-16.384-90.112-25.941-136.533-25.941v0zM918.869 647.339l-70.997-28.672c0 1.365-1.365 2.731-1.365 4.096-17.749 32.768-38.229 62.805-64.171 88.747l79.189 79.189c34.133-34.133 62.805-73.728 84.651-116.053 2.731-4.096 4.096-8.192 6.827-12.288l-34.133-15.019zM641.707 800.256c-35.499 12.288-72.363 19.115-109.227 20.48v111.957c51.883-1.365 103.765-10.923 152.917-30.037l-43.691-102.4zM326.315 894.464l13.653-34.133 28.672-69.632c-8.192-2.731-15.019-6.827-21.845-10.923v0c-25.941-13.653-50.517-30.037-72.363-49.152l-79.189 79.189c30.037 27.307 64.171 50.517 99.669 69.632 10.923 5.461 21.845 9.557 31.403 15.019v0zM73.728 636.416v0l27.307-10.923 75.093-31.403c-15.019-35.499-24.576-73.728-27.307-113.323h-111.957c4.096 54.613 16.384 106.496 36.864 155.648v0zM72.363 267.776l45.056 19.115 57.344 24.576c4.096-10.923 9.557-20.48 13.653-30.037 13.653-25.941 30.037-50.517 49.152-72.363l-79.189-79.189c-27.307 30.037-50.517 64.171-69.632 99.669-4.096 12.288-10.923 24.576-16.384 38.229v0 0zM383.659 106.667c38.229-15.019 79.189-23.211 120.149-24.576v-111.957c-55.979 1.365-111.957 12.288-163.84 34.133l43.691 102.4z" />
<glyph unicode="&#xe917;" glyph-name="icon_Loss" horiz-adv-x="717" d="M358.4-64l-358.4 537.856h253.696v486.144h209.818v-486.144h253.286z" />
<glyph unicode="&#xe918;" glyph-name="icon_Massage" d="M832 301.837l-148.429 146.048 148.429 145.638v-291.686zM788.198 192.115l-546.637-0.102c-20.941 0-35.2 7.936-44.723 25.139 31.923 31.283 63.77 62.669 95.616 94.029l55.219 54.349c11.008 10.854 22.093 21.581 33.28 32.41l5.325 5.146 71.91-70.758c10.803-10.701 21.606-21.376 32.486-31.949 7.782-7.578 15.693-9.165 20.992-9.165 8.243 0 16.051 3.61 23.245 10.701l105.549 104.269 165.478-163.123c7.603-7.526 15.181-15.078 22.886-22.579-6.579-15.949-22.989-27.622-40.627-28.365v0zM192 593.318l151.219-148.48-151.219-148.659v297.139zM235.853 703.962l2.918 0.051 546.33-0.026c20.147 0 37.658-11.904 43.955-29.389l-317.082-312.986-256.256 252.774c-20.301 20.122-40.627 40.192-61.030 60.288 6.349 16.282 23.398 28.646 41.165 29.286v0zM512 960.013c-282.778 0-512-229.274-512-512 0-282.778 229.222-512 512-512s512 229.222 512 512c0 282.726-229.222 512-512 512v0z" />
<glyph unicode="&#xe919;" glyph-name="icon_Menu" horiz-adv-x="263" d="M131.657 696.686c72.704 0 131.657 58.953 131.657 131.657s-58.953 131.657-131.657 131.657c-72.704 0-131.657-58.953-131.657-131.657s58.953-131.657 131.657-131.657zM131.657 316.343c72.704 0 131.657 58.953 131.657 131.657s-58.953 131.657-131.657 131.657c-72.704 0-131.657-58.953-131.657-131.657s58.953-131.657 131.657-131.657zM131.657-64c72.704 0 131.657 58.953 131.657 131.657s-58.953 131.657-131.657 131.657c-72.704 0-131.657-58.953-131.657-131.657s58.953-131.657 131.657-131.657z" />
<glyph unicode="&#xe91a;" glyph-name="icon_MinMaxBet" d="M742.096 160.803c-17.161-18.503-41.454-29.237-67.231-29.449-25.459 0-49.117 10.028-66.666 28.284l-156.46 162.781v-63.1c0-50.776-41.313-92.089-92.089-92.089h-51.836c-50.776 0-92.054 41.313-92.054 92.089v174.292h-38.17c-36.582 0-69.703 21.681-84.356 55.225s-8.051 72.563 16.878 99.469l153.353 165.358c17.161 18.467 41.49 29.202 67.125 29.449h0.106c25.423 0 49.081-10.028 66.666-28.284l156.46-162.781v63.1c0 50.776 41.313 92.054 92.089 92.054h51.8c50.776 0 92.089-41.278 92.089-92.054v-174.292h38.135c36.617 0 69.738-21.681 84.392-55.261 14.654-33.545 8.051-72.563-16.878-99.434l-153.353-165.358zM502.763 960.018c-277.681 0-502.749-225.103-502.749-502.784s225.068-502.784 502.749-502.784c277.681 0 502.784 225.103 502.784 502.784s-225.103 502.784-502.784 502.784v0zM529.094 508.977c6.709 15.713 3.354 33.933-8.474 46.257l-158.897 165.323c-8.121 8.439-18.891 13.1-31.002 13.1h-0.141c-11.758-0.106-22.916-5.049-30.897-13.63l-153.353-165.358c-11.511-12.429-14.583-30.508-7.804-46.045s22.14-25.565 39.089-25.565h87.57v-223.726c0-23.552 19.103-42.655 42.655-42.655h51.8c23.552 0 42.655 19.103 42.655 42.655v223.726h87.57c17.090 0 32.556 10.205 39.23 25.918zM827.939 431.404h-87.57v223.726c0 23.552-19.103 42.655-42.655 42.655h-51.836c-23.552 0-42.62-19.103-42.62-42.655v-223.726h-87.57c-17.090 0-32.556-10.205-39.23-25.918-6.709-15.748-3.354-33.969 8.474-46.257l158.897-165.358c8.121-8.404 18.891-13.1 31.038-13.1h0.106c11.723 0.106 22.881 5.049 30.897 13.665l153.353 165.323c11.511 12.429 14.583 30.508 7.804 46.045s-22.14 25.6-39.089 25.6z" />
<glyph unicode="&#xe91b;" glyph-name="icon_Next_Wizard" horiz-adv-x="991" d="M664.114 395.712l-239.946-218.773c-8.654-7.895-19.522-11.793-30.324-11.793-12.387 0-24.642 5.054-33.495 14.964-16.78 18.63-15.36 47.368 3.105 64.281l202.983 185.047-202.983 185.047c-18.465 16.879-19.885 45.618-3.105 64.248 16.747 18.597 45.287 20.018 63.818 3.171l239.946-218.74c9.447-8.654 14.831-20.876 14.831-33.726s-5.384-25.105-14.831-33.726zM495.484 943.486c-273.672 0-495.484-221.845-495.484-495.484 0-273.672 221.812-495.484 495.484-495.484 273.639 0 495.484 221.812 495.484 495.484 0 273.639-221.845 495.484-495.484 495.484z" />
<glyph unicode="&#xe91c;" glyph-name="icon_Notifications" d="M243.43 239.488c0 11.597-0.077 23.117 0.128 34.662 0.026 1.331 1.536 2.79 2.56 4.019 17.971 20.71 36.019 41.344 53.811 62.182 1.792 2.099 2.995 5.453 3.021 8.243 0.179 42.547 0.128 85.094 0.128 127.616 0 98.97 63.309 180.557 159.078 204.698 4.198 1.050 5.35 2.662 5.146 6.605-0.282 5.146-0.333 10.317 0.026 15.462 1.664 25.062 21.888 44.134 45.926 43.571 23.757-0.589 43.085-21.12 43.418-46.182 0.077-4.787 0.128-9.574-0.026-14.362-0.077-2.867 0.922-4.019 3.891-4.787 85.146-23.014 137.446-77.619 156.467-163.686 2.79-12.621 3.558-25.882 3.686-38.886 0.41-43.11 0.179-86.195 0.051-129.28 0-3.942 1.050-6.938 3.61-9.882 17.843-20.326 35.635-40.704 53.197-61.235 1.715-1.997 2.765-5.12 2.867-7.782 0.282-10.112 0.077-20.224 0.077-30.976h-537.062zM546.765 161.152c-19.712-13.926-41.062-15.59-62.49-4.403-20.582 10.803-30.643 28.749-32.179 52.403h119.501c-0.666-20.173-8.627-36.48-24.832-48v0zM512 960c-282.778 0-512-229.274-512-512 0-282.778 229.222-512 512-512s512 229.222 512 512c0 282.726-229.222 512-512 512v0z" />
<glyph unicode="&#xe91d;" glyph-name="icon_Profit" horiz-adv-x="717" d="M358.4 960l-358.4-537.856h253.696v-486.144h209.818v486.144h253.286z" />
<glyph unicode="&#xe91e;" glyph-name="icon_ReduceValue" horiz-adv-x="1536" d="M7.978 448c0 69.985 56.685 126.67 126.67 126.67h1266.703c69.985 0 126.67-56.685 126.67-126.67 0-69.922-56.685-126.67-126.67-126.67h-1266.703c-69.985 0-126.67 56.748-126.67 126.67z" />
<glyph unicode="&#xe91f;" glyph-name="icon_ReplaceLid" horiz-adv-x="1195" d="M954.928 508.61c-33.826 29.632-129.673 51.032-242.79 51.032-16.862 0-33.348-0.504-49.289-1.411 37.137-11.019 70.554-26.843 91.682-49.621 7.851-8.466 13.619-18.075 17.579-28.557 3.345-8.836 5.7-18.142 5.7-28.557v-38.4c71.168 5.51 130.048 19.654 162.645 38.4 15.087 8.668 24.439 18.343 26.795 28.557 0.41 1.68 0.887 3.326 0.887 5.039 0 8.231-4.745 16.126-13.21 23.517zM700.256 480.054c-15.906 11.154-40.789 20.897-72.055 28.557-36.489 8.903-81.681 14.883-131.311 16.731-10.854 0.437-21.845 0.706-33.075 0.706-6.212 0-12.288-0.134-18.364-0.269-12.629-0.269-25.020-0.773-37.069-1.545-114.722-7.358-200.567-37.124-200.567-72.735 0-3.427 1.058-6.786 2.594-10.112 4.881-10.448 17.135-20.191 35.294-28.792 27.17-12.867 67.209-23.181 115.166-29.329 11.947-1.545 24.405-2.755 37.239-3.763 9.489-0.706 19.149-1.277 29.013-1.713 9.523-0.403 19.183-0.638 29.013-0.739 2.56 0 5.086-0.101 7.68-0.101 16.862 0 33.314 0.504 49.289 1.411 14.609 0.84 28.672 2.049 42.291 3.595 16.862 1.881 32.87 4.233 47.787 7.055 28.638 5.443 53.385 12.464 72.567 20.662 1.161 0.504 2.15 1.041 3.277 1.579 17.681 7.996 30.242 17.033 36.352 26.709 2.765 4.401 4.437 8.903 4.437 13.539 0 10.112-6.997 19.754-19.558 28.557zM777.821 356.004v-316.071c0-2.788-0.785-5.241-1.058-7.929-1.092-11.355-4.028-21.837-9.216-31.211 114.722 7.391 200.602 37.124 200.602 72.735v328.099c-53.316-29.867-132.267-41.357-190.327-45.623zM689.521 353.793c-81.067-31.446-193.297-33.966-225.724-33.966-2.048 0-4.983 0.034-7.646 0.067-7.612 0.067-17.374 0.336-29.013 0.806-8.841 0.37-18.5 0.941-29.013 1.713-58.061 4.267-137.045 15.757-190.327 45.623v-328.099c0-41.155 114.62-74.55 256-74.55 16.862 0 33.348 0.504 49.289 1.411 32.734 1.848 63.147 5.543 90.112 10.65 30.379 5.779 56.218 13.338 75.844 22.241 12.459 5.611 22.494 11.759 29.423 18.276 7.339 6.954 11.332 14.312 11.332 21.972v328.099c-9.421-5.275-19.49-10.045-30.276-14.245zM1160.889 673.936c-9.216 15.353-24.235 26.474-41.779 30.875l-873.984 221.062c-17.579 4.435-36.181 1.848-51.746-7.223-15.599-9.071-26.863-23.853-31.403-41.122l-159.812-612.287c-9.387-35.914 12.629-72.534 49.118-81.773l98.475-24.928v292.957c0 125.313 261.598 131.663 314.027 131.663 5.393 0 13.38-0.101 22.63-0.37 81.067 31.446 193.297 33.966 225.724 33.966 48.947 0 279.757-5.611 310.477-108.146l3.55-385.615c9.421 8.601 16.623 19.519 19.934 32.151l122.163 467.892c4.506 17.268 1.843 35.545-7.373 50.898z" />
<glyph unicode="&#xe920;" glyph-name="icon_Reset" horiz-adv-x="841" d="M420.608 790.309h-192.183l75.557 70.766c22.565 21.065 24.283 57.015 3.877 80.238-20.407 23.333-55.15 24.978-77.641 3.986l-181.285-169.691c-0.329-0.293-0.549-0.695-0.878-0.987-1.609-1.646-3.109-3.438-4.571-5.266-0.878-1.134-1.829-2.158-2.67-3.365-1.426-2.121-2.56-4.389-3.694-6.693-0.549-1.061-1.243-2.085-1.682-3.182-1.17-2.779-2.011-5.705-2.706-8.704-0.183-0.731-0.549-1.463-0.695-2.231-0.768-3.767-1.17-7.68-1.17-11.703s0.402-7.936 1.17-11.703c0.146-0.768 0.512-1.463 0.695-2.231 0.695-2.999 1.536-5.925 2.706-8.704 0.439-1.097 1.134-2.085 1.646-3.182 1.17-2.304 2.304-4.608 3.73-6.693 0.805-1.207 1.755-2.231 2.67-3.365 1.463-1.829 2.962-3.657 4.571-5.266 0.329-0.329 0.549-0.695 0.878-0.987l181.285-169.728c10.496-9.838 23.698-14.702 36.901-14.702 14.958 0 29.879 6.29 40.741 18.688 20.407 23.259 18.688 59.209-3.877 80.274l-75.557 70.766h192.183c174.153 0 310.565-134.4 310.565-305.957 0-177.006-139.301-321.024-310.565-321.024-171.301 0-310.601 144.018-310.601 321.024 0 31.378-24.649 56.832-55.003 56.832s-55.003-25.454-55.003-56.832c0-239.689 188.709-434.688 420.608-434.688s420.535 194.999 420.535 434.688c0 235.264-184.722 419.621-420.535 419.621z" />
<glyph unicode="&#xe921;" glyph-name="icon_RightNavigation" horiz-adv-x="640" d="M22.69 931.029c-32.469-36.053-29.739-91.819 6.059-124.501l393.259-358.528-393.259-358.528c-35.797-32.683-38.528-88.405-6.059-124.501 32.384-36.011 87.765-38.827 123.648-6.144l464.896 423.851c18.304 16.725 28.757 40.448 28.757 65.323s-10.453 48.597-28.757 65.323l-464.896 423.851c-16.768 15.317-37.803 22.827-58.752 22.827-23.893 0-47.659-9.771-64.896-28.971z" />
<glyph unicode="&#xe922;" glyph-name="icon_RundownInventory" horiz-adv-x="1303" d="M1082.819 193.592c0-35.7-28.253-64.605-63.069-64.605-34.909 0-63.069 28.905-63.069 64.605v448.838c0 35.654 28.16 64.605 63.069 64.605 34.816 0 63.069-28.951 63.069-64.605v-448.838zM900.035 193.592c0-35.7-28.253-64.605-63.069-64.605s-63.069 28.905-63.069 64.605v280.064c0 35.7 28.253 64.605 63.069 64.605s63.069-28.905 63.069-64.605v-280.064zM717.251 193.592c0-35.7-28.253-64.605-63.069-64.605s-63.069 28.905-63.069 64.605v448.838c0 35.654 28.253 64.605 63.069 64.605s63.069-28.951 63.069-64.605v-448.838zM534.561 193.592c0-35.7-28.3-64.605-63.116-64.605s-63.069 28.905-63.069 64.605v280.064c0 35.7 28.253 64.605 63.069 64.605s63.116-28.905 63.116-64.605v-280.064zM351.73 193.592c0-35.7-28.253-64.605-63.069-64.605s-63.069 28.905-63.069 64.605v448.838c0 35.654 28.253 64.605 63.069 64.605s63.069-28.951 63.069-64.605v-448.838zM1079.235 960.009h-855.18c-123.578 0-224.070-103.005-224.070-229.562v-564.876c0-126.557 100.492-229.562 224.070-229.562h855.18c123.532 0 224.023 103.005 224.023 229.562v564.876c0 126.557-100.492 229.562-224.023 229.562v0z" />
<glyph unicode="&#xe923;" glyph-name="icon_Success" d="M804.768 542.701l-308.682-310.309c-9.376-9.464-22.223-14.792-35.603-14.792h-0.1c-13.48 0.033-26.294 5.427-35.703 14.925l-154.424 156.66c-19.32 19.624-18.953 51.029 0.801 70.189 19.82 19.161 51.486 18.797 70.772-0.794l118.821-120.49 272.879 274.304c19.386 19.591 51.085 19.723 70.772 0.496 19.687-19.26 19.887-50.698 0.467-70.189zM518.582 959.967c-283.475 3.189-514.067-223.957-518.515-503.388-4.648-293.748 234.542-522.256 510.846-520.562 273.815-2.259 507.991 221.233 513.004 501.727 5.179 292.785-234.11 519.167-505.336 522.223z" />
<glyph unicode="&#xe924;" glyph-name="icon_surveillance" d="M87.073 142.91v-8.85c0-50.798 0.037-101.632 0-152.503-0.037-25.783-18.798-45.458-43.41-45.568-24.576-0.11-43.666 19.639-43.666 45.385v432.055c0 25.673 19.163 45.458 43.703 45.275 24.649-0.146 43.337-19.749 43.374-45.641 0.037-57.856 0-115.712 0-173.568v-9.033h306.944v85.76c2.523-0.439 4.352-0.512 6.034-1.134 24.978-8.704 49.957-17.664 75.008-26.185 4.827-1.646 6.181-3.986 6.181-8.887-0.219-30.72 0-61.44-0.183-92.16-0.11-26.587-18.871-44.946-45.531-44.946h-348.453zM849.072 654.303c-0.549 19.675-2.085 37.632-9.253 54.711-2.633 6.254-6.693 8.448-12.361 5.266-7.497-4.279-15.141-8.667-21.65-14.263-20.992-18.249-37.083-40.631-50.834-64.658-36.206-63.159-57.6-130.45-55.15-204.032 0.439-11.813 3.511-23.845 7.022-35.255 3.767-12.215 8.631-13.787 19.273-7.168 7.936 4.937 15.579 10.752 22.199 17.298 28.562 28.27 48.603 62.281 65.097 98.56 21.76 47.982 33.792 98.304 35.657 149.541zM932.089 680.891c0-15.653 0.475-30.171-0.11-44.617-1.719-41.801-11.008-82.139-24.869-121.49-18.651-53.065-43.922-102.51-80.274-145.737-21.029-24.942-44.837-46.775-75.813-59.099-26.478-10.569-52.407-9.472-79.506 0.183-141.166 50.359-282.697 99.621-423.973 149.541-55.735 19.712-92.014 57.856-105.911 115.968-6.912 28.965-4.535 57.6 5.595 85.541 24.027 66.487 47.287 133.339 72.704 199.278 21.431 55.552 64.256 86.601 122.112 97.17 29.696 5.376 58.587 1.28 86.93-8.741 188.343-66.487 376.795-132.827 565.248-199.205 22.053-7.79 32.987-26.075 29.001-48.567-4.023-22.455-21.797-36.901-45.093-34.999-8.631 0.695-17.006 4.791-25.49 7.534-6.619 2.121-13.093 4.608-20.553 7.241z" />
<glyph unicode="&#xe925;" glyph-name="icon_SwipeCard" horiz-adv-x="1652" d="M1626.533 821.208h-119.469l-530.967 108.236c-89.725 41.528-129.256 25.18-151.072 16.293-1.859-0.933-4.702-1.865-4.702-1.865-9.732 0-24.167 0-395.205-278.955h-324.945c-51.615 0-93.005-41.528-93.005-93.314v-537.284c0-51.786 41.39-93.314 93.005-93.314h963.844c51.56 0 92.951 41.528 92.951 93.314v209.395c38.11 4.663 71.627 8.393 105.964 20.078 123.242 41.034 223.629 119.866 249.655 142.742h112.962c12.084 0 21.816 9.765 21.816 21.45v371.282c0.984 12.124-8.748 21.943-20.832 21.943v0zM51.4 571.657c0 27.045 21.871 48.989 48.826 48.989h963.79c3.663 0 6.944-0.933 10.662-0.933 19.082-4.663 33.462-19.146 37.235-37.304v-1.865c0.875-2.359 0.875-5.157 0.875-7.954v-62.539c-17.169-15.36-72.502-62.045-173.927-97.922-79.5-28.472-112.962-71.865-127.343-104.505h-760.173v264.034h0.055zM50.252 267.741h752.518c0 0-8.256-132.703 152.986-65.336 0 0 104.761 34.177 152.986 30.062v-95.399h-1058.49v130.673zM1112.789 34.318c0-26.168-21.816-49.044-48.826-49.044h-963.735c-26.956 0-48.826 21.943-48.826 49.044v65.282h1061.388v-65.282zM1249.481 306.69c-31.603-11.191-65.066-14.428-104.159-18.158-10.662-0.933-20.887-2.853-32.533-3.785-59.051-6.967-130.186-19.091-228.713-55.462-8.366-2.798-19.082-4.224-27.448 2.743-8.858 8.393-12.576 23.809-9.787 41.089 6.944 40.595 47.897 76.966 106.456 97.977 135.763 47.123 194.814 112.405 197.602 115.203 3.281 3.73 5.14 8.832 5.14 14.428v71.865c0 5.596-0.984 11.63-1.859 18.213v1.865c-6.999 34.451-33.462 73.236-91.146 73.236h-563.445c130.186 97.484 298.427 220.641 325.437 235.069 6.507 0.933 10.662 2.798 16.239 5.596 16.294 6.528 44.179 18.213 117.61-17.226 1.859-0.933 3.718-0.933 5.577-1.865l519.048-105.328v-341.768c-24.331-20.462-119.797-96.167-234.017-133.69v0zM1604.17 450.858h-77.422v327.944h77.422v-327.944z" />
<glyph unicode="&#xe926;" glyph-name="icon_TableInventory" horiz-adv-x="1303" d="M1082.819 193.592c0-35.7-28.253-64.605-63.069-64.605-34.909 0-63.069 28.905-63.069 64.605v448.838c0 35.654 28.16 64.605 63.069 64.605 34.816 0 63.069-28.951 63.069-64.605v-448.838zM900.035 193.592c0-35.7-28.253-64.605-63.069-64.605s-63.069 28.905-63.069 64.605v280.064c0 35.7 28.253 64.605 63.069 64.605s63.069-28.905 63.069-64.605v-280.064zM717.251 193.592c0-35.7-28.253-64.605-63.069-64.605s-63.069 28.905-63.069 64.605v448.838c0 35.654 28.253 64.605 63.069 64.605s63.069-28.951 63.069-64.605v-448.838zM534.561 193.592c0-35.7-28.3-64.605-63.116-64.605s-63.069 28.905-63.069 64.605v280.064c0 35.7 28.253 64.605 63.069 64.605s63.116-28.905 63.116-64.605v-280.064zM351.73 193.592c0-35.7-28.253-64.605-63.069-64.605s-63.069 28.905-63.069 64.605v448.838c0 35.654 28.253 64.605 63.069 64.605s63.069-28.951 63.069-64.605v-448.838zM1079.235 960.009h-855.18c-123.578 0-224.070-103.005-224.070-229.562v-564.876c0-126.557 100.492-229.562 224.070-229.562h855.18c123.532 0 224.023 103.005 224.023 229.562v564.876c0 126.557-100.492 229.562-224.023 229.562v0z" />
<glyph unicode="&#xe927;" glyph-name="icon_Time" d="M436.633 553.652c0-38.699-0.256-77.397 0.085-116.096 0.213-22.955 7.979-42.624 28.373-55.595 62.336-39.68 124.672-79.403 187.051-118.997 16.512-10.453 34.517-14.72 54.101-12.971 27.989 2.517 51.371 24.021 58.325 54.059 6.571 27.989-2.816 50.645-27.776 66.304-46.677 29.141-93.312 58.411-140.331 86.955-8.875 5.419-12.203 11.051-12.117 21.376 0.469 61.739 0.512 123.477 0.128 185.259-0.256 44.416-31.403 76.715-72.875 76.8-43.691 0.043-74.923-32.128-74.965-77.184v-109.909zM510.873-63.991c-276.309-1.664-515.499 226.859-510.805 520.576 4.437 279.424 235.008 506.581 518.485 503.381 271.232-3.029 510.592-229.461 505.344-522.24-5.035-280.448-239.189-503.936-513.024-501.717v0z" />
<glyph unicode="&#xe928;" glyph-name="icon_TransactionTypes" horiz-adv-x="1297" d="M1199.913 721.141c-41.075-6.38-77.564 1.899-107.272 31.852-30.185 30.391-38.543 67.747-31.331 110.071h-831.906c3.869-38.72-4.776-73.007-31.666-101.109-27.367-28.54-61.182-37.843-99.773-34.385v-351.496c38.496 3.848 72.311-6.185 99.678-34.141 27.415-28.151 35.63-63.169 31.857-101.889h830.282c-4.155 40.376 7.976 74.127 37.111 100.963 29.469 27.177 64.573 33.898 103.021 27.42v352.714zM649.989 959.985h534.114c62.854 0 112.096-49.581 112.096-113.578 0.096-196.52 0.096-393.041 0-589.561 0-62.195-47.952-111.97-109.326-113.87-3.391-0.097-6.782-0.146-10.269-0.146-351.809 0-703.762 0-1055.62-0.049-49.242 0-86.926 20.163-108.37 66.043-6.639 13.978-10.507 30.683-10.507 46.123-0.764 197.592-0.525 395.184-0.43 592.727 0 61.854 49.528 112.263 110.376 112.311 179.296 0.049 358.639 0 537.935 0v0zM648.886 64.992h592.431c23.021 0 41.791-7.598 51.678-30.294 12.848-29.612-6.973-63.023-38.83-65.994-4.728-0.438-9.552-0.779-14.376-0.779-392.502 0-785.195-0.049-1177.697 0.292-12.227 0-25.552 2.338-36.394 7.744-19.057 9.546-26.89 32.388-21.349 53.769 5.015 19.871 22.782 33.508 45.851 35.164 3.439 0.244 6.83 0.097 10.269 0.097h588.419zM616.098 450.153c51.391 52.308 103.26 105.249 154.747 157.606-14.758 15.050-30.233 30.781-46.949 47.876-35.534-36.333-71.737-73.251-109.23-111.532-14.806 15.439-29.421 30.927-43.176 45.392-15.905-16.218-31.331-31.95-46.090-47.048 30.090-30.537 60.705-61.757 90.699-92.294zM403.56 551.506c-0.143 137.832 110.185 250.777 244.824 250.825 135.212 0.097 245.541-113.091 245.971-252.238 0.43-136.517-110.758-248.341-246.83-248.341-134.878 0.049-243.869 111.629-243.965 249.754zM223.419 551.939c0 38.476 29.994 68.77 67.821 68.673 37.397-0.049 68.012-31.317 67.821-69.257-0.239-37.453-31.57-68.965-68.49-68.916-37.493 0.049-67.152 30.732-67.152 69.501zM1074.353 551.413c-0.096-37.989-30.71-69.111-67.917-69.013s-67.725 31.463-67.725 69.549c0 38.038 31.14 68.867 69.349 68.673 36.919-0.195 66.484-31.073 66.293-69.208z" />
<glyph unicode="&#xe929;" glyph-name="icon_User" d="M759.296 220.902c-15.334-16.563-35.354-30.080-63.002-42.47-32.486-14.592-67.379-24.371-103.731-29.158-18.406-2.406-37.376-3.968-55.706-5.504-5.53-0.435-11.11-0.922-16.666-1.382l-0.077 0.845h-7.859c-55.475 0-104.755 7.27-150.758 22.221-38.144 12.365-66.176 27.29-88.141 46.925-16.358 14.592-25.728 29.184-29.517 45.824-3.046 13.414-1.254 27.75 5.683 45.030 8.678 21.632 22.605 42.086 43.853 64.333 27.699 28.954 61.338 52.275 100.070 69.53 21.99-26.573 45.517-44.723 71.885-55.424 39.578-16.128 79.59-11.725 118.4 13.056 16.538 10.547 31.667 24.090 46.848 42.189 48.205-21.248 88.192-51.866 118.861-91.034 14.618-18.688 24.243-36.89 29.44-55.578 6.886-25.037 0.512-47.718-19.584-69.402zM490.701 752c7.117 1.075 14.362 1.638 21.53 1.638 67.149 0 126.106-47.59 140.237-113.152 1.459-6.682 2.15-13.517 2.79-19.149 0.23-2.483 0.486-4.762 0.691-5.504-0.41-37.325-9.037-70.912-27.085-105.651-15.923-30.669-34.995-53.888-58.24-70.938-20.582-15.053-41.037-21.76-62.822-20.659-20.685 1.050-39.936 8.909-58.829 24.064-29.286 23.475-51.174 55.245-66.995 97.178-9.216 24.422-13.696 47.386-13.722 70.093-0.102 70.502 52.531 131.584 122.445 142.080zM512 960c-282.778 0-512-229.248-512-512 0-282.778 229.222-512 512-512 282.752 0 512 229.222 512 512 0 282.752-229.248 512-512 512z" />
<glyph unicode="&#xe92a;" glyph-name="icon_Pay" horiz-adv-x="1331" d="M522.701 181.002c-19.661-22.323-44.493-35.635-72.141-43.981-2.304-0.768-4.71-1.382-7.782-2.253v-69.53h-94.413v35.123c0 7.219-0.256 14.49 0.051 21.709 0.205 4.659-1.28 6.195-6.042 6.707-34.355 4.25-67.738 12.39-97.997 30.669-1.946 1.229-4.301 4.762-3.891 6.605 8.448 34.662 17.152 69.274 26.010 104.653 10.598-5.581 20.634-11.315 31.078-16.333 29.184-14.029 59.802-21.709 92.16-19.2 8.755 0.666 17.971 3.43 25.856 7.322 11.827 5.888 13.824 19.661 3.84 28.314-8.653 7.526-18.944 13.67-29.286 18.33-19.968 8.909-40.806 15.565-60.621 24.525-24.32 11.008-46.080 26.010-62.259 48.333-34.355 47.258-27.034 118.272 16.282 159.59 17.869 16.998 38.912 27.955 61.901 35.226 1.946 0.563 3.84 1.178 6.195 1.946v64.256h93.901v-57.446c33.28-3.379 64.87-11.213 94.515-27.955-9.114-35.021-18.278-69.99-27.341-104.602-16.947 7.168-32.973 14.95-49.613 20.685-21.402 7.373-43.827 10.342-66.304 6.502-6.144-1.126-12.646-3.994-17.766-7.834-6.451-4.915-6.502-13.568-0.205-18.688 7.27-5.888 15.053-11.366 23.501-15.104 19.046-8.653 38.605-15.821 57.856-24.064 25.293-10.854 48.794-24.678 67.021-46.438 16.435-19.661 24.371-42.701 26.266-68.25 2.611-37.171-6.042-70.707-30.771-98.816zM404.275 752.189c-224.051 3.686-401.254-180.787-404.224-401.818-3.174-230.042 177.92-414.822 396.749-414.362 218.47-0.41 393.83 180.173 397.568 400.333 3.789 231.014-176.026 412.365-390.093 415.846zM1144.75 107.325c-19.046-2.509-39.834-4.506-61.542-6.093-29.645-2.15-59.29-3.226-87.962-3.226-51.507 0-109.363 3.738-165.171 11.981-26.47-51.405-61.235-97.536-102.451-136.602 58.163-20.787 150.784-37.376 267.622-37.376 26.88 0 54.63 1.024 82.33 3.021 19.712 1.331 38.81 3.174 57.037 5.581 32.102 4.096 61.798 9.728 88.32 16.589 30.362 7.731 55.142 16.742 73.728 26.675 24.832 13.773 31.386 24.115 33.28 29.184 0.87 2.202 1.28 3.891 1.28 5.274v135.526c-25.907-13.21-54.784-23.45-88.474-32.205-30.054-7.68-63.027-13.875-97.997-18.33zM1079.798 676.326c-41.267-2.816-72.909-3.123-84.531-3.123-40.499 0-151.859 2.765-253.338 28.518 3.226-3.277 6.656-6.195 9.779-9.523 47.565-51.456 83.046-111.718 105.728-176.947 40.858-5.274 87.040-8.397 137.83-8.397 26.88 0 53.811 0.973 82.33 3.021 19.712 1.331 38.81 3.226 57.088 5.581 31.744 4.045 61.44 9.626 88.269 16.538 30.464 7.834 55.245 16.794 73.677 26.726 24.883 13.722 31.437 24.115 33.331 29.184 0.819 2.202 1.229 3.891 1.229 5.274v136.653c-2.304-1.024-4.608-2.048-7.014-3.021-76.493-33.024-175.053-45.67-244.378-50.483zM1144.75 405.524c-19.046-2.509-39.834-4.506-61.542-6.093-29.645-2.099-59.29-3.226-87.962-3.226-35.226 0-73.626 1.894-112.23 5.632 2.458-22.17 4.045-44.493 3.635-67.174-0.717-41.114-6.758-80.845-16.589-119.040 37.683-4.352 79.462-6.963 125.184-6.963 26.829 0 54.579 0.973 82.33 2.918 19.712 1.434 38.81 3.328 57.139 5.632 32 4.147 61.696 9.779 88.218 16.589 30.464 7.782 55.245 16.794 73.728 26.726 24.832 13.722 31.386 24.115 33.28 29.184 0.87 2.202 1.28 3.84 1.28 5.274v161.126c-25.907-13.261-54.784-23.501-88.474-32.256-29.85-7.629-62.822-13.824-97.997-18.33zM995.251 787.302c26.778 0 54.528 1.024 82.33 2.97 19.712 1.434 38.81 3.328 57.139 5.632 31.795 4.147 61.44 9.677 88.218 16.589 30.464 7.782 55.245 16.794 73.728 26.726 24.832 13.722 31.386 24.064 33.28 29.184 0.87 2.15 1.28 3.84 1.28 5.274 0 5.99-5.12 12.39-9.37 16.64-4.762 4.864-11.571 9.882-20.275 14.899-37.069 21.555-103.014 38.912-181.146 47.821-19.046 2.15-38.656 3.891-58.982 5.018-15.616 0.922-31.539 1.434-47.821 1.69l-18.381 0.256c-94.31 0-182.272-10.906-247.757-30.669-30.566-9.165-54.886-20.173-70.451-31.795-11.469-8.55-17.818-16.998-17.818-23.859 0.051-35.226 130.97-86.374 336.026-86.374z" />
<glyph unicode="&#xe92b;" glyph-name="icon_PostRating" d="M854.38 460.154l-57.53 29.603-57.53-29.603 10.985 62.743-46.545 44.451 64.326 9.169 28.765 57.111 28.812-57.111 64.279-9.169-46.545-44.451 10.985-62.743zM577.993 522.897l10.985-62.743-57.53 29.603-57.577-29.603 11.031 62.743-46.545 44.451 64.233 9.169 28.858 57.111 28.812-57.111 64.279-9.169-46.545-44.451zM312.497 522.897l11.031-62.743-57.577 29.603-57.484-29.603 10.938 62.743-46.545 44.451 64.326 9.169 28.765 57.111 28.858-57.111 64.233-9.169-46.545-44.451zM1023.34 848.482c-0.326 66.746-49.385 111.43-118.97 111.476-147.921 0.093-31.558 0-179.479 0-147.409 0-459.823 0.093-607.232 0-57.297-0.093-100.957-32.209-114.036-84.154-2.746-10.799-3.491-22.295-3.491-33.513-0.14-186.275-0.186-436.457-0.047-622.732 0-62.138 35.887-107.52 94.86-116.457 24.343-3.677 214.854-1.536 239.663-1.164 9.542 0.14 15.22-2.839 20.62-10.566 27.276-39.052 55.156-77.731 83.13-116.271 38.54-52.922 134.656-51.945 171.799 1.815 25.926 37.423 51.479 75.078 76.474 113.105 5.911 9.030 12.288 11.962 22.993 11.916 153.228-0.326 42.217-0.233 195.398-0.233 69.632 0 117.946 43.892 118.272 111.756 0.931 190.371 0.838 444.649 0.047 635.020v0z" />
<glyph unicode="&#xe92c;" glyph-name="icon_PrintMarker" horiz-adv-x="1434" d="M617.4 154.875c0-27.341-22.528-49.664-50.074-49.664h-334.95c-27.494 0-49.971 22.323-49.971 49.664v456.602c0 27.341 22.477 49.664 49.971 49.664h334.95c27.546 0 50.074-22.323 50.074-49.664v-456.602zM1201.080 530.017l-147.456-146.534c-19.456-19.354-57.754-37.12-85.197-39.578l-125.133-11.11c-27.341-2.406-47.77 17.869-45.363 45.056l11.264 124.365c2.458 27.187 20.378 65.28 39.782 84.634l209.715 208.384c19.456 19.302 12.851 35.123-14.643 35.123h-994.048c-27.494 0-50.022-22.374-50.022-49.664v-795.034c0-27.341 22.528-49.664 50.022-49.664h1136.435c27.494 0 50.022 22.323 50.022 49.664v529.818c0 27.341-15.923 33.894-35.379 14.541v0zM1418.998 917.801l-27.904 27.699c-19.405 19.302-51.251 19.302-70.707 0l-394.752-392.243c-19.456-19.354-37.325-57.395-39.782-84.634l-0.819-8.55c-2.406-27.238 18.022-47.514 45.414-45.107l8.602 0.768c27.392 2.458 65.69 20.275 85.146 39.578l394.803 392.192c19.456 19.354 19.456 50.995 0 70.298zM463.452 416.599c-13.158 5.427-26.624 10.24-39.629 15.974-5.888 2.458-11.162 6.093-16.23 9.984-4.25 3.43-4.25 9.165 0.154 12.442 3.533 2.509 7.936 4.403 12.237 5.12 15.514 2.56 30.822 0.614 45.568-4.25 11.469-3.789 22.374-9.011 34.048-13.773 6.195 22.989 12.493 46.131 18.739 69.376-20.326 11.059-42.086 16.282-64.87 18.534v38.093h-64.512v-42.598c-1.587-0.461-2.97-0.922-4.25-1.331-15.872-4.813-30.31-11.981-42.547-23.296-29.747-27.443-34.765-74.496-11.213-105.83 11.11-14.797 26.112-24.73 42.752-32.051 13.722-5.99 28.006-10.394 41.728-16.282 7.117-3.072 14.131-7.117 20.122-12.134 6.81-5.734 5.427-14.848-2.662-18.79-5.427-2.611-11.725-4.403-17.766-4.864-22.221-1.638-43.264 3.43-63.334 12.749-7.168 3.328-14.080 7.117-21.35 10.803-6.093-23.398-11.981-46.336-17.869-69.376-0.256-1.229 1.382-3.635 2.714-4.403 20.736-12.083 43.674-17.51 67.328-20.275 3.226-0.41 4.25-1.382 4.147-4.506-0.256-4.813-0.102-9.574-0.102-14.387v-23.296h64.973v46.080c1.997 0.563 3.738 1.075 5.274 1.536 18.995 5.53 35.994 14.387 49.51 29.184 17.050 18.637 22.989 40.858 21.146 65.485-1.28 16.947-6.758 32.256-18.022 45.261-12.493 14.438-28.621 23.603-46.080 30.822z" />
<glyph unicode="&#xe92d;" glyph-name="icon_Transfer" d="M85.786 626.664c0-44.311 15.744-61.299 56.747-61.299h558.173c0-26.391-0.469-50.454 0.171-74.472 0.512-20.526 9.856-36.258 27.35-44.59 17.323-8.192 34.304-5.446 49.281 7.773 73.174 64.697 146.477 129.255 219.395 194.231 36.651 32.628 35.883 73.773-0.853 105.982-45.91 40.261-91.607 80.895-137.346 121.389-27.051 23.924-53.974 48.034-81.153 71.772-14.848 12.846-31.531 16.477-49.195 7.866-17.494-8.611-26.582-24.064-27.52-44.497-0.555-12.009-0.213-24.11-0.213-36.119v-38.865h-18.432c-181.080 0-362.16-0.605-543.197 0.512-33.451 0.233-54.657-23.505-53.633-57.995 1.579-50.501 0.427-101.095 0.427-151.689zM885.008 330.691c-181.037-1.117-362.117-0.512-543.154-0.512h-18.475v38.818c0 12.055 0.341 24.11-0.213 36.119-0.896 20.48-10.027 35.933-27.52 44.497-17.664 8.611-34.39 5.027-49.195-7.866-27.179-23.691-54.102-47.848-81.153-71.772-45.739-40.447-91.436-81.081-137.346-121.389-36.737-32.209-37.505-73.354-0.853-105.982 72.961-64.976 146.221-129.534 219.395-194.184 14.976-13.219 31.915-16.011 49.281-7.773 17.494 8.285 26.838 24.017 27.35 44.543 0.64 24.064 0.171 48.127 0.171 74.472h558.173c41.003 0 56.747 16.989 56.747 61.346 0 50.594-1.152 101.142 0.427 151.689 1.024 34.443-20.182 58.181-53.633 57.995z" />
<glyph unicode="&#xe92e;" glyph-name="icon_PostRating2" d="M854.38 460.154l-57.53 29.603-57.53-29.603 10.985 62.743-46.545 44.451 64.326 9.169 28.765 57.111 28.812-57.111 64.279-9.169-46.545-44.451 10.985-62.743zM577.993 522.897l10.985-62.743-57.53 29.603-57.577-29.603 11.031 62.743-46.545 44.451 64.233 9.169 28.858 57.111 28.812-57.111 64.279-9.169-46.545-44.451zM312.497 522.897l11.031-62.743-57.577 29.603-57.484-29.603 10.938 62.743-46.545 44.451 64.326 9.169 28.765 57.111 28.858-57.111 64.233-9.169-46.545-44.451zM1023.34 848.482c-0.326 66.746-49.385 111.43-118.97 111.476-147.921 0.093-31.558 0-179.479 0-147.409 0-459.823 0.093-607.232 0-57.297-0.093-100.957-32.209-114.036-84.154-2.746-10.799-3.491-22.295-3.491-33.513-0.14-186.275-0.186-436.457-0.047-622.732 0-62.138 35.887-107.52 94.86-116.457 24.343-3.677 214.854-1.536 239.663-1.164 9.542 0.14 15.22-2.839 20.62-10.566 27.276-39.052 55.156-77.731 83.13-116.271 38.54-52.922 134.656-51.945 171.799 1.815 25.926 37.423 51.479 75.078 76.474 113.105 5.911 9.030 12.288 11.962 22.993 11.916 153.228-0.326 42.217-0.233 195.398-0.233 69.632 0 117.946 43.892 118.272 111.756 0.931 190.371 0.838 444.649 0.047 635.020v0z" />
<glyph unicode="&#xe92f;" glyph-name="icon_Filter" horiz-adv-x="983" d="M491.323 959.927c147.573 0 295.11-0.073 442.683 0.073 20.064 0 34.858-7.742 43.145-26.389 8.542-19.119 8.833-37.584-6.106-53.941-32.931-36.13-66.008-72.115-99.085-108.099-70.224-76.44-140.485-152.807-210.673-229.247-10.141-10.941-20.173-21.954-30.496-32.75-4.144-4.362-5.925-8.978-5.925-15.266 0.182-166.401 0.182-332.803 0.145-499.168 0-4.725 0.218-9.523-0.545-14.103-3.053-18.428-13.485-31.15-31.259-36.639-17.629-5.416-32.568-0.436-45.181 13.376-58.375 63.864-117.004 127.473-175.634 191.118-9.887 10.686-14.794 22.863-14.757 37.548 0.182 102.065 0 204.094 0.254 306.123 0.036 7.706-2.29 13.122-7.415 18.647-45.871 49.506-91.452 99.194-137.069 148.845-65.172 70.77-130.090 141.757-195.589 212.236-15.957 17.12-22.79 35.076-13.849 57.612 8.069 20.464 21.809 30.024 43.872 30.024h443.483z" />
<glyph unicode="&#xe930;" glyph-name="icon_Rating" d="M793.839 517.803l-102.195-99.567c-14.165-13.858-23.040-41.165-19.695-60.689l24.098-140.663c3.345-19.593-8.26-27.989-25.805-18.773l-126.327 66.423c-17.545 9.216-46.285 9.216-63.795 0l-126.362-66.423c-17.51-9.216-29.15-0.819-25.771 18.773l24.098 140.663c3.311 19.524-5.53 46.831-19.729 60.689l-102.195 99.567c-14.165 13.858-9.728 27.511 9.865 30.345l141.244 20.548c19.593 2.833 42.837 19.695 51.61 37.478l63.181 128c8.772 17.749 23.108 17.749 31.881 0l63.215-128c8.738-17.783 31.983-34.645 51.575-37.478l141.244-20.548c19.593-2.833 24.030-16.486 9.865-30.345zM512 960c-282.795 0-512-229.239-512-512 0-282.795 229.205-512 512-512s512 229.205 512 512c0 282.761-229.205 512-512 512z" />
<glyph unicode="&#xe931;" glyph-name="icon_Check" horiz-adv-x="1344" d="M1309.559 748.753l-736.627-775.772c-22.375-23.661-53.031-36.981-84.962-36.981h-0.239c-32.169 0.083-62.746 13.568-85.201 37.312l-368.512 391.65c-46.104 49.060-45.228 127.572 1.911 175.473 47.298 47.901 122.864 46.991 168.888-1.986l283.551-301.225 651.187 685.761c46.263 48.977 121.909 49.308 168.888 1.241 46.98-48.15 47.458-126.745 1.115-175.473z" />
<glyph unicode="&#xe932;" glyph-name="icon_MaxChips" horiz-adv-x="878" d="M384.622 279.007c-15.104-1.902-31.561-3.438-48.75-4.608-23.515-1.609-46.994-2.414-69.669-2.414-87.479 0-198.656 12.288-266.203 45.861v-103.205c0.073-26.624 103.753-65.353 266.203-65.353 21.321 0 43.264 0.805 65.17 2.304 15.653 1.024 30.793 2.414 45.202 4.242 25.417 3.109 48.933 7.351 69.961 12.544 24.064 5.851 43.703 12.654 58.405 20.151 19.675 10.459 24.869 18.286 26.368 22.162 0.658 1.646 0.987 2.926 0.987 3.95v102.656c-20.517-10.021-43.337-17.774-70.071-24.393-23.771-5.815-49.92-10.496-77.605-13.897zM384.622 504.792c-15.104-1.902-31.561-3.438-48.75-4.608-23.515-1.609-46.994-2.414-69.669-2.414-87.479 0-198.656 12.325-266.203 45.861v-122.551c0.073-26.661 103.753-65.353 266.203-65.353 21.211 0 43.191 0.731 65.207 2.231 15.616 1.097 30.757 2.523 45.239 4.279 25.344 3.109 48.859 7.387 69.888 12.507 24.137 5.925 43.776 12.727 58.405 20.261 19.675 10.386 24.869 18.249 26.368 22.126 0.658 1.609 0.987 2.889 0.987 3.986v121.966c-20.517-10.021-43.337-17.774-70.071-24.393-23.625-5.778-49.774-10.459-77.605-13.897zM384.622 72.58c-15.104-1.902-31.561-3.438-48.75-4.571-23.515-1.646-46.994-2.45-69.669-2.45-87.479 0-198.656 12.325-266.203 45.861v-110.080c0-26.661 103.68-65.317 266.203-65.317 99.767 0 191.305 15.031 238.775 39.241 17.115 8.704 27.319 18.505 27.319 26.075v109.495c-20.517-9.984-43.337-17.774-70.071-24.32-23.735-5.851-49.847-10.496-77.605-13.934zM333.158 709.829c-32.695-2.158-57.71-2.341-66.962-2.341-41.253 0-175.397 3.255-266.167 42.862v-103.497c0.073-26.624 103.753-65.353 266.167-65.353 21.321 0 42.642 0.768 65.207 2.304 15.616 1.024 30.757 2.45 45.239 4.242 25.161 3.072 48.713 7.278 69.925 12.507 24.101 5.925 43.739 12.69 58.368 20.224 19.675 10.423 24.869 18.249 26.368 22.126 0.695 1.646 0.987 2.926 0.987 3.95v103.497c-1.792-0.768-3.621-1.573-5.522-2.304-60.599-25.015-138.715-34.56-193.609-38.217zM508.837 883.116c-29.367 16.311-81.591 29.513-143.47 36.206-15.104 1.646-30.61 2.962-46.738 3.84-12.361 0.658-25.015 1.061-37.851 1.243l-14.592 0.219c-74.679 0-144.347-8.265-196.242-23.223-24.174-6.949-43.447-15.287-55.771-24.064-9.106-6.473-14.153-12.91-14.153-18.066 0.073-26.697 103.753-65.39 266.167-65.39 21.211 0 43.227 0.731 65.207 2.231 15.616 1.061 30.757 2.487 45.275 4.242 25.161 3.145 48.677 7.314 69.888 12.581 24.101 5.888 43.739 12.727 58.405 20.224 19.675 10.386 24.832 18.249 26.331 22.089 0.695 1.646 1.024 2.889 1.024 4.023 0 4.535-4.059 9.362-7.424 12.581-3.767 3.694-9.179 7.461-16.055 11.264zM621.978 1.328c0-10.35-1.573-20.37-4.791-29.952 159.232 0.878 260.535 39.022 260.535 65.353v749.019c-84.261-36.791-205.751-42.24-255.744-42.862v-741.559zM621.978 829.294c156.453 1.609 255.744 39.241 255.744 65.317 0 26.697-103.643 65.39-266.13 65.39-19.31 0-38.363-0.549-57.051-1.719 59.831-33.243 66.962-78.043 67.291-80.384l0.146-48.603z" />
<glyph unicode="&#xe933;" glyph-name="icon_MinimumChips" horiz-adv-x="914" d="M635.224 777.472c166.912 0 279.077 47.177 279.077 91.282 0 44.069-112.165 91.246-279.077 91.246-166.985 0-279.15-47.177-279.15-91.246 0-44.105 112.165-91.282 279.15-91.282zM361.472-3.566c-37.413-3.657-67.657-4.206-82.359-4.206-43.374 0-188.709 4.315-279.113 58.807v-23.808c0-44.069 112.165-91.246 279.113-91.246 64.183 0 127.013 7.57 176.933 21.321 63.963 17.627 102.217 43.739 102.217 69.925v23.845c-18.871-11.374-41.362-21.211-66.889-29.367-47.214-15.067-96.731-22.089-129.902-25.271zM350.724 257.276c-23.954 2.158-48.055 3.255-71.607 3.255-76.617 0-148.334-10.313-201.911-29.074-49.042-17.189-77.202-39.863-77.202-62.135 0-44.069 112.165-91.282 279.113-91.282 23.259 0 47.36 1.097 71.607 3.255 16.933 1.499 33.243 3.547 48.603 6.034 45.897 7.387 84.955 18.761 113.042 32.841 5.266 2.67 10.423 5.595 15.287 8.741 13.934 8.997 30.61 23.259 30.61 40.411 0 7.497-3.401 15.323-10.167 23.186-26.99 31.525-102.619 56.357-197.376 64.768zM356.081 750.471v-407.771c96.329-8.777 255.086-40.155 273.993-151.259 1.317-7.57 2.523-14.446 2.523-22.126v-142.080c0-34.743-12.654-65.024-37.632-90.258 13.605-0.658 27.099-0.987 40.265-0.987 166.912 0 279.077 47.177 279.077 91.246v723.237c-90.405-54.491-235.739-58.807-279.077-58.807-43.41 0-188.709 4.315-279.15 58.807z" />
</font>
</defs>
</svg>
